<svg xmlns="http://www.w3.org/2000/svg" viewBox="0 0 1800 600" width="1800" height="600">
<rect width="1800" height="600" fill="#000"/>
<g stroke="#fff" fill="none">
<line x1="414.5" y1="300" x2="1725.5" y2="300" stroke-width="14"/>
<rect x="24" y="110" width="296" height="380" rx="24" stroke-width="11"/>
<line x1="420.0" y1="300" x2="420.0" y2="220" stroke-width="11"/>
<line x1="528.3" y1="300" x2="528.3" y2="380" stroke-width="11"/>
<line x1="636.7" y1="300" x2="636.7" y2="220" stroke-width="11"/>
<line x1="745.0" y1="300" x2="745.0" y2="380" stroke-width="11"/>
<line x1="853.3" y1="300" x2="853.3" y2="220" stroke-width="11"/>
<line x1="961.7" y1="300" x2="961.7" y2="380" stroke-width="11"/>
<line x1="1070.0" y1="300" x2="1070.0" y2="220" stroke-width="11"/>
<line x1="1178.3" y1="300" x2="1178.3" y2="380" stroke-width="11"/>
<line x1="1286.7" y1="300" x2="1286.7" y2="220" stroke-width="11"/>
<line x1="1395.0" y1="300" x2="1395.0" y2="380" stroke-width="11"/>
<line x1="1503.3" y1="300" x2="1503.3" y2="220" stroke-width="11"/>
<line x1="1611.7" y1="300" x2="1611.7" y2="380" stroke-width="11"/>
<line x1="1720.0" y1="300" x2="1720.0" y2="220" stroke-width="11"/>
<circle cx="74" cy="180.0" r="22" stroke-width="8"/>
<circle cx="74" cy="300.0" r="22" stroke-width="8"/>
<circle cx="74" cy="420.0" r="22" stroke-width="8"/>
</g><g fill="#fff" font-family="Helvetica, Arial, sans-serif" font-weight="bold" font-size="30">
<text x="420.0" y="200" text-anchor="middle"><tspan x="420.0" dy="0">BERLIN</tspan></text>
<text x="528.3" y="432" text-anchor="middle"><tspan x="528.3" dy="0">BUENOS</tspan><tspan x="528.3" dy="34">AIRES</tspan></text>
<text x="636.7" y="200" text-anchor="middle"><tspan x="636.7" dy="0">DELHI</tspan></text>
<text x="745.0" y="432" text-anchor="middle"><tspan x="745.0" dy="0">HAVANA</tspan></text>
<text x="853.3" y="200" text-anchor="middle"><tspan x="853.3" dy="0">KRAKÓW</tspan></text>
<text x="961.7" y="432" text-anchor="middle"><tspan x="961.7" dy="0">LONDON</tspan></text>
<text x="1070.0" y="166" text-anchor="middle"><tspan x="1070.0" dy="0">LOS</tspan><tspan x="1070.0" dy="34">ANGELES</tspan></text>
<text x="1178.3" y="432" text-anchor="middle"><tspan x="1178.3" dy="0">MOSCOW</tspan></text>
<text x="1286.7" y="200" text-anchor="middle"><tspan x="1286.7" dy="0">NEW YORK</tspan></text>
<text x="1395.0" y="432" text-anchor="middle"><tspan x="1395.0" dy="0">PARIS</tspan></text>
<text x="1503.3" y="200" text-anchor="middle"><tspan x="1503.3" dy="0">ROME</tspan></text>
<text x="1611.7" y="432" text-anchor="middle"><tspan x="1611.7" dy="0">TEL AVIV</tspan></text>
<text x="1720.0" y="200" text-anchor="middle"><tspan x="1720.0" dy="0">TOKYO</tspan></text>
<text x="112" y="194.0" font-size="38">EARLY</text>
<text x="112" y="314.0" font-size="38">MIDDLE</text>
<text x="112" y="434.0" font-size="38">MODERN</text>
</g></svg>
